<svg width="79" height="17" viewBox="0 0 79 17" fill="none" xmlns="http://www.w3.org/2000/svg">
<path d="M19.948 13V4.516H21.448V11.632H25.864V13H19.948ZM26.991 13V6.676H28.455V13H26.991ZM27.723 5.944C27.443 5.944 27.219 5.86 27.051 5.692C26.883 5.524 26.799 5.304 26.799 5.032C26.799 4.768 26.887 4.552 27.063 4.384C27.239 4.208 27.459 4.12 27.723 4.12C27.979 4.12 28.199 4.204 28.383 4.372C28.567 4.54 28.659 4.76 28.659 5.032C28.659 5.304 28.571 5.524 28.395 5.692C28.219 5.86 27.995 5.944 27.723 5.944ZM30.6778 13V7.972H29.6938V6.676H30.6778V6.076C30.6778 5.596 30.7498 5.204 30.8938 4.9C31.0378 4.588 31.2658 4.36 31.5778 4.216C31.8978 4.072 32.3058 4 32.8018 4H33.7378V5.296H32.9698C32.7538 5.296 32.5858 5.332 32.4658 5.404C32.3458 5.476 32.2578 5.584 32.2018 5.728C32.1538 5.864 32.1298 6.032 32.1298 6.232V6.676H33.7378V7.972H32.1298V13H30.6778ZM37.6038 13.084C36.9478 13.084 36.3878 12.948 35.9238 12.676C35.4678 12.404 35.1198 12.028 34.8798 11.548C34.6478 11.06 34.5318 10.496 34.5318 9.856C34.5318 9.216 34.6518 8.652 34.8918 8.164C35.1398 7.668 35.4918 7.28 35.9478 7C36.4118 6.72 36.9678 6.58 37.6158 6.58C38.0958 6.58 38.5158 6.668 38.8758 6.844C39.2358 7.012 39.5358 7.244 39.7758 7.54C40.0238 7.836 40.2078 8.172 40.3278 8.548C40.4478 8.924 40.5038 9.32 40.4958 9.736C40.4878 9.832 40.4798 9.928 40.4718 10.024C40.4638 10.112 40.4518 10.208 40.4358 10.312H35.9958C36.0198 10.592 36.0918 10.848 36.2118 11.08C36.3398 11.312 36.5158 11.496 36.7398 11.632C36.9718 11.768 37.2598 11.836 37.6038 11.836C37.8038 11.836 37.9958 11.812 38.1798 11.764C38.3638 11.708 38.5238 11.628 38.6598 11.524C38.8038 11.42 38.8998 11.288 38.9478 11.128H40.4118C40.3078 11.584 40.1158 11.956 39.8358 12.244C39.5558 12.532 39.2198 12.744 38.8278 12.88C38.4438 13.016 38.0358 13.084 37.6038 13.084ZM36.0198 9.22H39.0678C39.0678 8.956 39.0078 8.716 38.8878 8.5C38.7678 8.284 38.5958 8.116 38.3718 7.996C38.1558 7.868 37.8918 7.804 37.5798 7.804C37.2438 7.804 36.9638 7.872 36.7398 8.008C36.5158 8.144 36.3438 8.32 36.2238 8.536C36.1038 8.752 36.0358 8.98 36.0198 9.22ZM42.1424 13V4.516H48.0704V5.884H43.6424V8.416H47.4344V9.784H43.6424V13H42.1424ZM51.9484 13.084C51.3004 13.084 50.7404 12.952 50.2684 12.688C49.8044 12.424 49.4444 12.048 49.1884 11.56C48.9404 11.072 48.8164 10.5 48.8164 9.844C48.8164 9.18 48.9444 8.608 49.2004 8.128C49.4564 7.64 49.8164 7.26 50.2804 6.988C50.7444 6.716 51.3004 6.58 51.9484 6.58C52.5884 6.58 53.1404 6.716 53.6044 6.988C54.0684 7.26 54.4244 7.644 54.6724 8.14C54.9204 8.628 55.0444 9.204 55.0444 9.868C55.0444 10.516 54.9204 11.084 54.6724 11.572C54.4324 12.052 54.0804 12.424 53.6164 12.688C53.1524 12.952 52.5964 13.084 51.9484 13.084ZM51.9364 11.752C52.3364 11.752 52.6564 11.664 52.8964 11.488C53.1444 11.312 53.3244 11.08 53.4364 10.792C53.5484 10.504 53.6044 10.192 53.6044 9.856C53.6044 9.52 53.5484 9.204 53.4364 8.908C53.3244 8.612 53.1444 8.376 52.8964 8.2C52.6564 8.016 52.3364 7.924 51.9364 7.924C51.5364 7.924 51.2124 8.016 50.9644 8.2C50.7164 8.376 50.5364 8.612 50.4244 8.908C50.3124 9.196 50.2564 9.512 50.2564 9.856C50.2564 10.192 50.3124 10.508 50.4244 10.804C50.5444 11.092 50.7244 11.324 50.9644 11.5C51.2124 11.668 51.5364 11.752 51.9364 11.752ZM56.4566 13V6.676H57.7886L57.8726 7.504C58.0326 7.264 58.2126 7.08 58.4126 6.952C58.6206 6.816 58.8406 6.72 59.0726 6.664C59.3126 6.608 59.5526 6.58 59.7926 6.58C59.8806 6.58 59.9606 6.58 60.0326 6.58C60.1126 6.58 60.1766 6.584 60.2246 6.592V7.984H59.8406C59.4246 7.984 59.0726 8.064 58.7846 8.224C58.4966 8.384 58.2806 8.612 58.1366 8.908C57.9926 9.204 57.9206 9.568 57.9206 10V13H56.4566ZM64.1483 15.892C63.6843 15.892 63.2483 15.816 62.8403 15.664C62.4403 15.52 62.1003 15.288 61.8203 14.968C61.5483 14.656 61.3643 14.252 61.2683 13.756H62.7683C62.8163 13.948 62.9123 14.104 63.0563 14.224C63.2003 14.344 63.3683 14.428 63.5603 14.476C63.7603 14.532 63.9643 14.56 64.1723 14.56C64.5643 14.56 64.8723 14.48 65.0963 14.32C65.3283 14.16 65.4923 13.94 65.5883 13.66C65.6843 13.388 65.7323 13.088 65.7323 12.76V12.16C65.5883 12.392 65.4043 12.576 65.1803 12.712C64.9643 12.848 64.7323 12.944 64.4843 13C64.2443 13.048 64.0043 13.072 63.7643 13.072C63.1083 13.072 62.5723 12.928 62.1563 12.64C61.7483 12.352 61.4483 11.968 61.2563 11.488C61.0643 11 60.9683 10.464 60.9683 9.88C60.9683 9.272 61.0723 8.72 61.2803 8.224C61.4963 7.72 61.8163 7.32 62.2403 7.024C62.6723 6.728 63.2123 6.58 63.8603 6.58C64.2363 6.58 64.5883 6.648 64.9163 6.784C65.2523 6.912 65.5323 7.108 65.7563 7.372L65.8523 6.676H67.2083V12.448C67.2083 13.16 67.1043 13.772 66.8963 14.284C66.6963 14.804 66.3723 15.2 65.9243 15.472C65.4763 15.752 64.8843 15.892 64.1483 15.892ZM64.0643 11.776C64.4403 11.776 64.7523 11.688 65.0003 11.512C65.2483 11.328 65.4363 11.088 65.5643 10.792C65.6923 10.488 65.7563 10.16 65.7563 9.808C65.7563 9.448 65.6923 9.124 65.5643 8.836C65.4443 8.548 65.2603 8.32 65.0123 8.152C64.7723 7.984 64.4603 7.9 64.0763 7.9C63.6683 7.9 63.3443 7.992 63.1043 8.176C62.8643 8.36 62.6883 8.604 62.5763 8.908C62.4723 9.204 62.4203 9.52 62.4203 9.856C62.4203 10.208 62.4763 10.532 62.5883 10.828C62.7003 11.116 62.8763 11.348 63.1163 11.524C63.3563 11.692 63.6723 11.776 64.0643 11.776ZM71.6983 13.084C71.0423 13.084 70.4823 12.948 70.0183 12.676C69.5623 12.404 69.2143 12.028 68.9743 11.548C68.7423 11.06 68.6263 10.496 68.6263 9.856C68.6263 9.216 68.7463 8.652 68.9863 8.164C69.2343 7.668 69.5863 7.28 70.0423 7C70.5063 6.72 71.0623 6.58 71.7103 6.58C72.1903 6.58 72.6103 6.668 72.9703 6.844C73.3303 7.012 73.6303 7.244 73.8703 7.54C74.1183 7.836 74.3023 8.172 74.4223 8.548C74.5423 8.924 74.5983 9.32 74.5903 9.736C74.5823 9.832 74.5743 9.928 74.5663 10.024C74.5583 10.112 74.5463 10.208 74.5303 10.312H70.0903C70.1143 10.592 70.1863 10.848 70.3063 11.08C70.4343 11.312 70.6103 11.496 70.8343 11.632C71.0663 11.768 71.3543 11.836 71.6983 11.836C71.8983 11.836 72.0903 11.812 72.2743 11.764C72.4583 11.708 72.6183 11.628 72.7543 11.524C72.8983 11.42 72.9943 11.288 73.0423 11.128H74.5063C74.4023 11.584 74.2103 11.956 73.9303 12.244C73.6503 12.532 73.3143 12.744 72.9223 12.88C72.5383 13.016 72.1303 13.084 71.6983 13.084ZM70.1143 9.22H73.1623C73.1623 8.956 73.1023 8.716 72.9823 8.5C72.8623 8.284 72.6903 8.116 72.4663 7.996C72.2503 7.868 71.9863 7.804 71.6743 7.804C71.3383 7.804 71.0583 7.872 70.8343 8.008C70.6103 8.144 70.4383 8.32 70.3183 8.536C70.1983 8.752 70.1303 8.98 70.1143 9.22Z" fill="white"/>
<path d="M76.9209 13.144C76.6649 13.144 76.4449 13.06 76.2609 12.892C76.0849 12.724 75.9969 12.496 75.9969 12.208C75.9969 11.92 76.0889 11.692 76.2729 11.524C76.4569 11.348 76.6769 11.26 76.9329 11.26C77.1889 11.26 77.4049 11.348 77.5809 11.524C77.7569 11.692 77.8449 11.92 77.8449 12.208C77.8449 12.496 77.7569 12.724 77.5809 12.892C77.4049 13.06 77.1849 13.144 76.9209 13.144Z" fill="#9CC05E"/>
<path d="M8.08492 7.08333L2.85529 12.3377C2.71662 12.4754 2.60656 12.6391 2.53145 12.8194C2.45634 12.9998 2.41767 13.1932 2.41767 13.3886C2.41767 13.5839 2.45634 13.7774 2.53145 13.9577C2.60656 14.1381 2.71662 14.3018 2.85529 14.4394C3.13535 14.7179 3.51429 14.8743 3.90929 14.8743C4.30429 14.8743 4.68324 14.7179 4.96329 14.4394L10.2099 9.20833M12.8357 10.8325L14.6675 9.00079C14.8002 8.86795 14.8748 8.68782 14.8748 8.5C14.8748 8.31217 14.8002 8.13204 14.6675 7.9992L9.29404 2.62579C9.16121 2.49299 8.98107 2.4184 8.79325 2.4184C8.60542 2.4184 8.42529 2.49299 8.29246 2.62579L6.46071 4.45754C6.32792 4.59037 6.25332 4.7705 6.25332 4.95833C6.25332 5.14615 6.32792 5.32629 6.46071 5.45912L11.8341 10.8325C11.967 10.9653 12.1471 11.0399 12.3349 11.0399C12.5227 11.0399 12.7029 10.9653 12.8357 10.8325Z" stroke="#9CC05E" stroke-width="1.4" stroke-linecap="round" stroke-linejoin="round"/>
</svg>
